<?xml version="1.0" encoding="UTF-8"?>
<svg xmlns="http://www.w3.org/2000/svg" xmlns:xlink="http://www.w3.org/1999/xlink" width="300px" height="300px" viewBox="0 0 300 300" version="1.1">
<g id="surface1">
<path style=" stroke:none;fill-rule:nonzero;fill:rgb(2.745098%,10.196078%,16.862745%);fill-opacity:1;" d="M 32.199219 0 L 268.199219 0 C 285.878906 0 300.199219 14.320312 300.199219 32 L 300.199219 268 C 300.199219 285.679688 285.878906 300 268.199219 300 L 32.199219 300 C 14.519531 300 0.199219 285.679688 0.199219 268 L 0.199219 32 C 0.199219 14.320312 14.519531 0 32.199219 0 Z M 32.199219 0 "/>
<path style=" stroke:none;fill-rule:nonzero;fill:rgb(100%,100%,100%);fill-opacity:1;" d="M 106.121094 93.71875 C 106.519531 94.71875 104.878906 95.441406 103.480469 98.320312 C 99.761719 106.078125 106.199219 112.601562 105.558594 122.640625 C 105.078125 129.921875 100.921875 139.039062 93.558594 141.640625 C 86 144.320312 78.761719 138.800781 77.679688 137.921875 C 69.359375 131.320312 69.601562 120.359375 69.640625 119.320312 C 69.960938 110.921875 74.839844 105.441406 76.71875 103.320312 C 87.078125 91.640625 104.839844 90.640625 106.121094 93.71875 Z M 106.121094 93.71875 "/>
<path style=" stroke:none;fill-rule:nonzero;fill:rgb(100%,100%,100%);fill-opacity:1;" d="M 87.921875 154.320312 C 99.519531 152.039062 109.238281 153.160156 115.320312 154.320312 L 110.519531 157.320312 C 108.078125 158.761719 99.71875 164.039062 96.800781 174.441406 C 93.28125 186.960938 99 201.800781 111.398438 210.480469 L 115.359375 213.238281 C 110.28125 214.640625 100 216.71875 87.960938 213.238281 C 80.359375 211.039062 68.800781 207.71875 63.519531 196.238281 C 58.238281 184.800781 61.28125 169.839844 69.480469 161.878906 C 74.359375 156.960938 80 155.839844 87.921875 154.320312 Z M 87.921875 154.320312 "/>
<path style=" stroke:none;fill-rule:nonzero;fill:rgb(100%,100%,100%);fill-opacity:1;" d="M 141.238281 93.398438 L 167.480469 93.398438 L 167.398438 213.199219 L 141.238281 213.199219 Z M 141.238281 93.398438 "/>
<path style=" stroke:none;fill-rule:nonzero;fill:rgb(100%,100%,100%);fill-opacity:1;" d="M 236.519531 93.800781 L 195.480469 93.800781 L 194.121094 93.398438 C 194.121094 93.398438 214.398438 113.121094 211.160156 121.921875 Z M 236.519531 93.800781 "/>
<path style=" stroke:none;fill-rule:nonzero;fill:rgb(2.745098%,10.196078%,16.862745%);fill-opacity:1;" d="M 174.398438 78.480469 L 194.121094 78.480469 L 194.121094 90.601562 L 174.398438 90.601562 Z M 174.398438 78.480469 "/>
<path style=" stroke:none;fill-rule:nonzero;fill:rgb(2.745098%,10.196078%,16.862745%);fill-opacity:1;" d="M 188 81.878906 L 203 81.878906 L 203 91.679688 L 188 91.679688 Z M 188 81.878906 "/>
<path style=" stroke:none;fill-rule:nonzero;fill:rgb(2.745098%,10.196078%,16.862745%);fill-opacity:1;" d="M 193.558594 109.878906 L 182.960938 98.640625 L 189.480469 91.71875 L 200.121094 102.960938 Z M 193.558594 109.878906 "/>
<path style=" stroke:none;fill-rule:nonzero;fill:rgb(2.745098%,10.196078%,16.862745%);fill-opacity:1;" d="M 199.921875 135.878906 L 193.800781 121.359375 L 206.039062 115.558594 L 212.199219 130.078125 Z M 199.921875 135.878906 "/>
<path style=" stroke:none;fill-rule:nonzero;fill:rgb(2.745098%,10.196078%,16.862745%);fill-opacity:1;" d="M 201.878906 134.761719 L 194.28125 120.839844 L 206.359375 113.441406 L 213.960938 127.359375 Z M 201.878906 134.761719 "/>
<path style=" stroke:none;fill-rule:nonzero;fill:rgb(100%,100%,100%);fill-opacity:1;" d="M 179.558594 157.839844 L 196.398438 139.839844 L 244.441406 212.601562 L 243.320312 213.199219 L 215.761719 213.199219 L 179.558594 157.238281 Z M 179.558594 157.839844 "/>
</g>
</svg>
